# xmcd
#
# Track frame offsets:
#	150
#	100989
#	114143
#	142681
#	166189
#	178733
#	197108
#	207534
#	221678
#
# Disc length: 3078 seconds
#
# Revision: 0
# Processed by: cddbd v1.5.2PL0 Copyright (c) Steve Scherf et al.
# Submitted via: EasyCDDAExtractor 2010.6.0.0
#
DISCID=7c0c0409
DTITLE=Vladimir Vysotsky - 18 Побег на рывок
DYEAR=2002
DGENRE=Vocal
TTITLE0=Интервью телевидению г. Пятигорска 14.09.79
TTITLE1=Черные бушлаты
TTITLE2=Был побег на рывок
TTITLE3=Ошибка вышла
TTITLE4=Никакой ошибки
TTITLE5=История болезни
TTITLE6=Из детства
TTITLE7=В младенчестве нас матери пугали...
TTITLE8=Наши помехи эпохе под стать...
EXTD=YEAR: 2002\n
EXTT0=
EXTT1=
EXTT2=
EXTT3=
EXTT4=
EXTT5=
EXTT6=
EXTT7=
EXTT8=
PLAYORDER=
